<svg width="24" height="24" viewBox="0 0 24 24" fill="none" xmlns="http://www.w3.org/2000/svg">
<g clip-path="url(#clip0_2662_1079)">
<path d="M11.766 20.032C16.3312 20.032 20.032 16.3312 20.032 11.766C20.032 7.20081 16.3312 3.5 11.766 3.5C7.20081 3.5 3.5 7.20081 3.5 11.766C3.5 16.3312 7.20081 20.032 11.766 20.032Z" stroke="#7F8FA4"/>
<path d="M12.0847 9.6542L13.0184 12.0736H10.9652L11.8984 9.65957C11.9307 9.58028 11.9624 9.49191 11.9936 9.39458C12.0252 9.49175 12.0555 9.57835 12.0847 9.6542ZM14.9349 14.6053H15.0826L15.0278 14.4682L12.5163 8.18738L12.4912 8.12451H12.4235H11.5644H11.4967L11.4716 8.18738L8.9601 14.4682L8.90527 14.6053H9.05295H9.7104C9.80333 14.6053 9.88808 14.5788 9.95806 14.5212C10.0192 14.4708 10.0648 14.4099 10.0894 14.3378L10.6511 12.8872H13.3324L13.8949 14.3398L13.8953 14.3409C13.9247 14.4144 13.9698 14.4768 14.0303 14.526C14.0991 14.5819 14.1847 14.6053 14.2775 14.6053H14.9349Z" fill="#7F8FA4" stroke="#7F8FA4" stroke-width="0.2"/>
</g>
<defs>
<clipPath id="clip0_2662_1079">
<rect width="18" height="18" fill="white" transform="translate(3 3)"/>
</clipPath>
</defs>
</svg>
