<svg width="24" height="24" viewBox="0 0 24 24" fill="none" xmlns="http://www.w3.org/2000/svg">
<g clip-path="url(#clip0_2662_1063)">
<path d="M5.3992 12.23L4.572 9.9693C4.53127 9.86903 4.48897 9.74997 4.4451 9.6121C4.40123 9.47423 4.35737 9.3254 4.3135 9.1656C4.27277 9.3254 4.23047 9.4758 4.1866 9.6168C4.14273 9.75467 4.10043 9.8753 4.0597 9.9787L3.2372 12.23H5.3992ZM7.6317 14.7962H6.6541C6.54443 14.7962 6.45513 14.7696 6.3862 14.7163C6.31727 14.6599 6.26557 14.591 6.2311 14.5095L5.7235 13.123H2.9082L2.4006 14.5095C2.37553 14.5816 2.32697 14.6474 2.2549 14.7069C2.18283 14.7664 2.09353 14.7962 1.987 14.7962H1L3.6743 8H4.9621L7.6317 14.7962Z" fill="#7F8FA4"/>
<path d="M16.9286 8L14.8183 14.7962H13.6762L12.191 10.1526C12.1502 10.0398 12.1126 9.90193 12.0782 9.739C12.0594 9.81733 12.0406 9.89097 12.0218 9.9599C12.003 10.0288 11.9826 10.0931 11.9607 10.1526L10.4614 14.7962H9.31458L7.20898 8H8.26648C8.37615 8 8.46702 8.02663 8.53908 8.0799C8.61428 8.13003 8.66442 8.19897 8.68948 8.2867L9.84568 12.3522C9.87075 12.4525 9.89425 12.5621 9.91618 12.6812C9.94125 12.7971 9.96632 12.9193 9.99138 13.0478C10.0165 12.9162 10.0431 12.7924 10.0713 12.6765C10.1026 12.5606 10.1355 12.4525 10.17 12.3522L11.5048 8.2867C11.5298 8.21463 11.5784 8.14883 11.6505 8.0893C11.7257 8.02977 11.8165 8 11.9231 8H12.2944C12.404 8 12.4933 8.02663 12.5623 8.0799C12.6312 8.13317 12.6829 8.2021 12.7174 8.2867L14.0475 12.3522C14.1133 12.5465 14.1728 12.7705 14.2261 13.0243C14.2668 12.7768 14.3122 12.5527 14.3624 12.3522L15.5186 8.2867C15.5374 8.20837 15.5844 8.141 15.6596 8.0846C15.7379 8.0282 15.8303 8 15.9369 8H16.9286Z" fill="#7F8FA4"/>
<path d="M23.7975 11.3981C23.7975 11.8963 23.7145 12.3538 23.5484 12.7705C23.3823 13.1872 23.1489 13.546 22.8481 13.8468C22.5473 14.1476 22.1854 14.381 21.7624 14.5471C21.3394 14.7132 20.8694 14.7962 20.3524 14.7962H17.7627V8H20.3524C20.8694 8 21.3394 8.0846 21.7624 8.2538C22.1854 8.41987 22.5473 8.6533 22.8481 8.9541C23.1489 9.25177 23.3823 9.60897 23.5484 10.0257C23.7145 10.4424 23.7975 10.8999 23.7975 11.3981ZM22.5003 11.3981C22.5003 11.0252 22.4502 10.6915 22.3499 10.397C22.2528 10.0993 22.1102 9.84867 21.9222 9.645C21.7373 9.4382 21.5117 9.27997 21.2454 9.1703C20.9822 9.06063 20.6845 9.0058 20.3524 9.0058H19.0317V13.7904H20.3524C20.6845 13.7904 20.9822 13.7356 21.2454 13.6259C21.5117 13.5162 21.7373 13.3596 21.9222 13.1559C22.1102 12.9491 22.2528 12.6984 22.3499 12.4039C22.4502 12.1062 22.5003 11.771 22.5003 11.3981Z" fill="#7F8FA4"/>
</g>
<defs>
<clipPath id="clip0_2662_1063">
<rect width="23" height="7" fill="white" transform="translate(1 8)"/>
</clipPath>
</defs>
</svg>
