<svg width="24" height="24" viewBox="0 0 24 24" fill="none" xmlns="http://www.w3.org/2000/svg">
<g clip-path="url(#clip0_2662_1088)">
<path d="M18.8224 5.49066V18.9735C18.8224 19.5747 18.3278 20.0667 17.7233 20.0667H7.09906C6.49458 20.0667 6 19.5747 6 18.9735V9.22577C6 8.93425 6.1099 8.66095 6.32972 8.44231L10.0665 4.72542C10.2864 4.50678 10.5611 4.39746 10.8542 4.39746H17.7233C18.3278 4.39746 18.8224 4.8894 18.8224 5.49066Z" stroke="#7F8FA4"/>
<path d="M7.09906 7.31281L6 6.21961L8.19812 4.0332L9.29719 5.1264" stroke="#7F8FA4"/>
<path d="M15.5068 7.31307H11.4953C11.2938 7.31307 11.1289 7.14909 11.1289 6.94867V6.21987C11.1289 6.01945 11.2938 5.85547 11.4953 5.85547H16.6792C17.0272 5.85547 17.1737 6.29274 16.899 6.51139L16.1846 7.07621C16.0014 7.22197 15.7633 7.31307 15.5068 7.31307Z" stroke="#7F8FA4"/>
<path d="M10.7285 15.9354V16.0354H10.8285H12.6166C12.9851 16.0354 13.3229 15.9723 13.6287 15.8444C13.9331 15.7171 14.1949 15.5374 14.4126 15.3054C14.63 15.0737 14.7979 14.7982 14.9169 14.4802C15.0362 14.1611 15.0952 13.8125 15.0952 13.4354C15.0952 13.0584 15.0362 12.7098 14.9169 12.3907C14.7979 12.0727 14.63 11.7982 14.4124 11.5688C14.1948 11.3369 13.9332 11.1574 13.629 11.03C13.3231 10.8997 12.9852 10.8354 12.6166 10.8354H10.8285H10.7285V10.9354V15.9354ZM13.9001 12.7282L13.9004 12.7294C13.966 12.9344 13.9995 13.1694 13.9995 13.4354C13.9995 13.7015 13.966 13.9377 13.9004 14.1453C13.8368 14.3507 13.7442 14.5233 13.6243 14.6638C13.5067 14.8019 13.3633 14.9081 13.1929 14.9829C13.0258 15.0571 12.834 15.0955 12.6166 15.0955H11.8047V11.7754H12.6166C12.834 11.7754 13.0254 11.8136 13.1925 11.8878C13.3625 11.9624 13.5062 12.0697 13.6238 12.2099L13.6248 12.2112C13.7442 12.3489 13.8365 12.5205 13.9001 12.7282Z" fill="#7F8FA4" stroke="#7F8FA4" stroke-width="0.2"/>
</g>
<defs>
<clipPath id="clip0_2662_1088">
<rect width="15" height="18" fill="white" transform="translate(5 3)"/>
</clipPath>
</defs>
</svg>
