<svg width="24" height="24" viewBox="0 0 24 24" fill="none" xmlns="http://www.w3.org/2000/svg">
<g clip-path="url(#clip0_2662_1054)">
<path d="M2.269 9.40228V11.4139H4.8164V12.4244H2.269V15.1927H1V8.39648H5.2864V9.40228H2.269Z" fill="#7F8FA4"/>
<path d="M15.367 8.39648L13.2567 15.1927H12.1146L10.6295 10.5491C10.5887 10.4363 10.5511 10.2984 10.5167 10.1355C10.4979 10.2138 10.4791 10.2875 10.4603 10.3564C10.4415 10.4253 10.4211 10.4896 10.3992 10.5491L8.89986 15.1927H7.75306L5.64746 8.39648H6.70496C6.81463 8.39648 6.90549 8.42312 6.97756 8.47639C7.05276 8.52652 7.10289 8.59545 7.12796 8.68318L8.28416 12.7487C8.30923 12.849 8.33273 12.9586 8.35466 13.0777C8.37973 13.1936 8.40479 13.3158 8.42986 13.4443C8.45493 13.3127 8.48156 13.1889 8.50976 13.073C8.54109 12.9571 8.57399 12.849 8.60846 12.7487L9.94326 8.68318C9.96833 8.61112 10.0169 8.54532 10.089 8.48579C10.1642 8.42625 10.255 8.39648 10.3616 8.39648H10.7329C10.8425 8.39648 10.9318 8.42312 11.0007 8.47639C11.0697 8.52965 11.1214 8.59858 11.1558 8.68318L12.4859 12.7487C12.5517 12.943 12.6113 13.167 12.6645 13.4208C12.7053 13.1733 12.7507 12.9492 12.8008 12.7487L13.957 8.68318C13.9758 8.60485 14.0228 8.53748 14.098 8.48108C14.1764 8.42468 14.2688 8.39648 14.3753 8.39648H15.367Z" fill="#7F8FA4"/>
<path d="M22.236 11.7946C22.236 12.2928 22.1529 12.7503 21.9869 13.167C21.8208 13.5837 21.5874 13.9425 21.2866 14.2433C20.9858 14.5441 20.6239 14.7775 20.2009 14.9436C19.7779 15.1097 19.3079 15.1927 18.7909 15.1927H16.2012V8.39648H18.7909C19.3079 8.39648 19.7779 8.48108 20.2009 8.65028C20.6239 8.81635 20.9858 9.04978 21.2866 9.35058C21.5874 9.64825 21.8208 10.0055 21.9869 10.4222C22.1529 10.8389 22.236 11.2964 22.236 11.7946ZM20.9388 11.7946C20.9388 11.4217 20.8886 11.088 20.7884 10.7935C20.6912 10.4958 20.5487 10.2452 20.3607 10.0415C20.1758 9.83468 19.9502 9.67645 19.6839 9.56678C19.4207 9.45712 19.123 9.40228 18.7909 9.40228H17.4702V14.1869H18.7909C19.123 14.1869 19.4207 14.1321 19.6839 14.0224C19.9502 13.9127 20.1758 13.7561 20.3607 13.5524C20.5487 13.3456 20.6912 13.0949 20.7884 12.8004C20.8886 12.5027 20.9388 12.1675 20.9388 11.7946Z" fill="#7F8FA4"/>
</g>
<defs>
<clipPath id="clip0_2662_1054">
<rect width="22" height="8" fill="white" transform="translate(1 8)"/>
</clipPath>
</defs>
</svg>
