<svg width="24" height="24" viewBox="0 0 24 24" fill="none" xmlns="http://www.w3.org/2000/svg">
<path d="M6.81047 13.23C6.47887 13.23 6.19858 13.1113 5.9696 12.874C5.74062 12.636 5.62613 12.3447 5.62613 12C5.62613 11.6553 5.74062 11.364 5.9696 11.126C6.19858 10.888 6.47887 10.769 6.81047 10.769C7.14207 10.769 7.42236 10.888 7.65134 11.126C7.88032 11.364 7.9948 11.6553 7.9948 12C7.9948 12.3447 7.88032 12.636 7.65134 12.874C7.42236 13.112 7.14207 13.231 6.81047 13.231M6.81047 17C5.47829 17 4.34366 16.5127 3.40658 15.538C2.46886 14.564 2 13.3847 2 12C2 10.6153 2.46886 9.436 3.40658 8.462C4.34366 7.48733 5.47829 7 6.81047 7C7.79822 7 8.68912 7.27833 9.48316 7.835C10.2766 8.391 10.8561 9.11267 11.2217 10H20.0758L22 12L18.929 15.154L17.2829 13.865L15.5434 15.192L13.8318 14H11.2217C10.8561 14.8747 10.2766 15.5933 9.48316 16.156C8.68912 16.7187 7.79822 17 6.81047 17ZM6.81047 16C7.75781 16 8.56597 15.704 9.23494 15.112C9.90392 14.5193 10.3324 13.8153 10.5203 13H14.1378L15.5136 13.967L17.3011 12.635L18.8607 13.855L20.6463 12L19.6842 11H10.5203C10.3324 10.1847 9.90392 9.48067 9.23494 8.888C8.56597 8.296 7.75781 8 6.81047 8C5.75216 8 4.84619 8.39167 4.09255 9.175C3.33891 9.95833 2.96209 10.9 2.96209 12C2.96209 13.1 3.33891 14.0417 4.09255 14.825C4.84619 15.6083 5.75216 16 6.81047 16Z" fill="#7F8FA4"/>
</svg>
