<svg width="24" height="24" viewBox="0 0 24 24" fill="none" xmlns="http://www.w3.org/2000/svg">
<g clip-path="url(#clip0_2662_1078)">
<path d="M11.766 19.5642C16.3312 19.5642 20.032 15.8634 20.032 11.2982C20.032 6.73304 16.3312 3.03223 11.766 3.03223C7.20081 3.03223 3.5 6.73304 3.5 11.2982C3.5 15.8634 7.20081 19.5642 11.766 19.5642Z" stroke="#7F8FA4"/>
<path d="M15.7656 8V15H14.5564V10.4786C14.5564 10.2978 14.5666 10.1026 14.5871 9.89281L12.3575 13.8672C12.252 14.0576 12.0905 14.1528 11.8728 14.1528H11.6789C11.4612 14.1528 11.2996 14.0576 11.1942 13.8672L8.93909 9.87828C8.9493 9.98479 8.9578 10.0897 8.9646 10.193C8.97141 10.2962 8.97481 10.3914 8.97481 10.4786V15H7.76562V8H8.80134C8.86256 8 8.91528 8.00161 8.9595 8.00484C9.00372 8.00807 9.04284 8.01614 9.07685 8.02905C9.11426 8.04195 9.14658 8.06293 9.17379 8.09198C9.2044 8.12102 9.23331 8.15975 9.26052 8.20816L11.4697 12.0954C11.5275 12.1987 11.5803 12.3052 11.6279 12.4149C11.6789 12.5247 11.7282 12.6376 11.7758 12.7538C11.8235 12.6344 11.8728 12.5198 11.9238 12.4101C11.9748 12.2971 12.0292 12.189 12.0871 12.0858L14.2656 8.20816C14.2928 8.15975 14.3217 8.12102 14.3524 8.09198C14.383 8.06293 14.4153 8.04195 14.4493 8.02905C14.4867 8.01614 14.5275 8.00807 14.5717 8.00484C14.616 8.00161 14.6687 8 14.7299 8H15.7656Z" fill="#7F8FA4"/>
</g>
<defs>
<clipPath id="clip0_2662_1078">
<rect width="18" height="19" fill="white" transform="translate(3 2)"/>
</clipPath>
</defs>
</svg>
