<svg width="24" height="24" viewBox="0 0 24 24" fill="none" xmlns="http://www.w3.org/2000/svg">
<path d="M19.086 20.8437L12.347 14.1092H11.3695C10.9981 14.9884 10.4083 15.6956 9.6002 16.2309C8.79211 16.7663 7.88791 17.0339 6.88759 17.0339C5.53405 17.0339 4.38123 16.5579 3.42913 15.6057C2.47638 14.6543 2 13.5022 2 12.1496C2 11.0125 2.3493 10.0086 3.0479 9.1379C3.7465 8.26784 4.63604 7.71624 5.71652 7.48309L3.07527 4.84359C2.971 4.7394 2.91887 4.62543 2.91887 4.50169C2.91887 4.37795 2.971 4.26138 3.07527 4.15197C3.1828 4.05689 3.29912 4.00642 3.42424 4.00056C3.54871 3.99405 3.66471 4.04452 3.77224 4.15197L19.7781 20.1531C19.8693 20.2442 19.9189 20.3549 19.9267 20.4852C19.9352 20.6167 19.8856 20.7362 19.7781 20.8437C19.6738 20.9479 19.5585 21 19.4321 21C19.305 21 19.1896 20.9479 19.086 20.8437ZM21.999 12.1496C21.999 12.2551 21.9821 12.3521 21.9482 12.4407C21.9137 12.5299 21.8537 12.6169 21.7683 12.7015L19.6989 14.751C19.6136 14.8363 19.5288 14.8972 19.4448 14.9337C19.3601 14.9701 19.2766 14.9884 19.1945 14.9884C19.0642 14.9884 18.9658 14.976 18.8993 14.9512C18.8328 14.9265 18.7573 14.8881 18.6725 14.836L17.2454 13.6168L16.5318 14.1424L16.1554 13.7673L17.5464 12.7699L19.1369 13.9568L20.9511 12.1496L19.9736 11.1727H13.5591L12.5816 10.1958H20.045C20.1499 10.1958 20.2476 10.2141 20.3382 10.2505C20.4295 10.287 20.5174 10.3476 20.6022 10.4322L21.7683 11.5976C21.853 11.6823 21.913 11.7693 21.9482 11.8585C21.9827 11.947 21.999 12.0441 21.999 12.1496ZM6.88759 16.0571C7.71848 16.0571 8.48387 15.8083 9.18377 15.3107C9.88368 14.8125 10.3614 14.1238 10.6168 13.2447H11.4819L10.1701 11.9337L9.01271 10.7771L7.85533 9.62145L6.5435 8.30952C5.46302 8.37725 4.59857 8.80153 3.95015 9.58238C3.30173 10.3639 2.97752 11.2196 2.97752 12.1496C2.97752 13.2241 3.36038 14.144 4.1261 14.9092C4.89182 15.6744 5.81232 16.0571 6.88759 16.0571ZM6.88759 13.3511C6.55067 13.3511 6.26588 13.2352 6.03324 13.0034C5.80059 12.7709 5.68426 12.4863 5.68426 12.1496C5.68426 11.8129 5.80059 11.5283 6.03324 11.2958C6.26588 11.0633 6.55067 10.9471 6.88759 10.9471C7.2245 10.9471 7.50929 11.0633 7.74194 11.2958C7.97458 11.5283 8.09091 11.8129 8.09091 12.1496C8.09091 12.4863 7.97458 12.7709 7.74194 13.0034C7.50929 13.2359 7.2245 13.3521 6.88759 13.3521" fill="#7F8FA4"/>
</svg>
