<svg width="24" height="24" viewBox="0 0 24 24" fill="none" xmlns="http://www.w3.org/2000/svg">
<g clip-path="url(#clip0_2662_1092)">
<path d="M18.8224 5.45746V18.9403C18.8224 19.5415 18.3278 20.0335 17.7233 20.0335H7.09906C6.49458 20.0335 6 19.5415 6 18.9403V9.19256C6 8.90104 6.1099 8.62774 6.32972 8.4091L10.0665 4.69222C10.2864 4.47358 10.5611 4.36426 10.8542 4.36426H17.7233C18.3278 4.36426 18.8224 4.8562 18.8224 5.45746Z" stroke="#7F8FA4"/>
<path d="M7.09906 7.2796L6 6.1864L8.19812 4L9.29719 5.0932" stroke="#7F8FA4"/>
<path d="M15.5068 7.27987H11.4953C11.2938 7.27987 11.1289 7.11589 11.1289 6.91547V6.18667C11.1289 5.98625 11.2938 5.82227 11.4953 5.82227H16.6792C17.0272 5.82227 17.1737 6.25954 16.899 6.47818L16.1846 7.04301C16.0014 7.18877 15.7633 7.27987 15.5068 7.27987Z" stroke="#7F8FA4"/>
<path d="M13.267 13.368C13.1146 13.4213 12.9342 13.4493 12.7252 13.4493H11.9203V11.324H12.7252C13.1636 11.324 13.4703 11.4226 13.6647 11.6011C13.8627 11.7808 13.9668 12.0331 13.9668 12.3709C13.9668 12.5331 13.9398 12.6793 13.8873 12.8107C13.8353 12.9411 13.7575 13.0533 13.6532 13.1482C13.552 13.2402 13.4241 13.314 13.267 13.368ZM13.6578 14.121C13.9305 14.0282 14.1623 13.8984 14.3496 13.7304C14.539 13.5629 14.6829 13.3628 14.7806 13.1309C14.8781 12.8993 14.9261 12.6455 14.9261 12.3709C14.9261 12.0947 14.8811 11.8416 14.7892 11.6129C14.6995 11.3828 14.5618 11.1857 14.3768 11.0228C14.1912 10.8595 13.9591 10.7365 13.6836 10.6517C13.4092 10.5638 13.0891 10.521 12.7252 10.521H11.0609H10.9609V10.621V16.2687V16.3687H11.0609H11.8203H11.9203V16.2687V14.2562H12.7252C13.0744 14.2562 13.3858 14.2119 13.6578 14.121Z" fill="#7F8FA4" stroke="#7F8FA4" stroke-width="0.2"/>
</g>
<defs>
<clipPath id="clip0_2662_1092">
<rect width="15" height="18" fill="white" transform="translate(5 3)"/>
</clipPath>
</defs>
</svg>
