<svg width="24" height="24" viewBox="0 0 24 24" fill="none" xmlns="http://www.w3.org/2000/svg">
<g clip-path="url(#clip0_2662_1064)">
<path d="M3.0539 11.8332C3.29203 11.8332 3.49883 11.8034 3.6743 11.7439C3.8529 11.6844 3.9986 11.6029 4.1114 11.4995C4.22733 11.393 4.3135 11.2676 4.3699 11.1235C4.4263 10.9794 4.4545 10.8211 4.4545 10.6488C4.4545 10.3041 4.34013 10.0394 4.1114 9.85451C3.8858 9.66964 3.53957 9.57721 3.0727 9.57721H2.2643V11.8332H3.0539ZM6.3063 15.3958H5.1642C4.948 15.3958 4.79133 15.3112 4.6942 15.142L3.2654 12.9659C3.21213 12.8844 3.1526 12.8265 3.0868 12.792C3.02413 12.7575 2.93013 12.7403 2.8048 12.7403H2.2643V15.3958H1V8.59961H3.0727C3.5333 8.59961 3.9281 8.64818 4.2571 8.74531C4.58923 8.83931 4.86027 8.97248 5.0702 9.14481C5.28327 9.31714 5.43993 9.52394 5.5402 9.76521C5.64047 10.0033 5.6906 10.2665 5.6906 10.5548C5.6906 10.7835 5.65613 10.9997 5.5872 11.2034C5.5214 11.4071 5.42427 11.5919 5.2958 11.758C5.17047 11.9241 5.0138 12.0698 4.8258 12.1951C4.64093 12.3204 4.42943 12.4191 4.1913 12.4912C4.27277 12.5382 4.34797 12.5946 4.4169 12.6604C4.48583 12.7231 4.5485 12.7983 4.6049 12.886L6.3063 15.3958Z" fill="#7F8FA4"/>
<path d="M15.9364 8.59961L13.8261 15.3958H12.684L11.1988 10.7522C11.158 10.6394 11.1204 10.5015 11.086 10.3386C11.0672 10.4169 11.0484 10.4906 11.0296 10.5595C11.0108 10.6284 10.9904 10.6927 10.9685 10.7522L9.4692 15.3958H8.3224L6.2168 8.59961H7.2743C7.38397 8.59961 7.47483 8.62624 7.5469 8.67951C7.6221 8.72964 7.67223 8.79858 7.6973 8.88631L8.8535 12.9518C8.87857 13.0521 8.90207 13.1617 8.924 13.2808C8.94907 13.3967 8.97413 13.5189 8.9992 13.6474C9.02427 13.5158 9.0509 13.392 9.0791 13.2761C9.11043 13.1602 9.14333 13.0521 9.1778 12.9518L10.5126 8.88631C10.5377 8.81424 10.5862 8.74844 10.6583 8.68891C10.7335 8.62938 10.8244 8.59961 10.9309 8.59961H11.3022C11.4118 8.59961 11.5011 8.62624 11.5701 8.67951C11.639 8.73278 11.6907 8.80171 11.7252 8.88631L13.0553 12.9518C13.1211 13.1461 13.1806 13.3701 13.2339 13.6239C13.2746 13.3764 13.32 13.1523 13.3702 12.9518L14.5264 8.88631C14.5452 8.80798 14.5922 8.74061 14.6674 8.68421C14.7457 8.62781 14.8381 8.59961 14.9447 8.59961H15.9364Z" fill="#7F8FA4"/>
<path d="M22.8053 11.9977C22.8053 12.4959 22.7223 12.9534 22.5562 13.3701C22.3901 13.7868 22.1567 14.1456 21.8559 14.4464C21.5551 14.7472 21.1932 14.9806 20.7702 15.1467C20.3472 15.3128 19.8772 15.3958 19.3602 15.3958H16.7705V8.59961H19.3602C19.8772 8.59961 20.3472 8.68421 20.7702 8.85341C21.1932 9.01948 21.5551 9.25291 21.8559 9.55371C22.1567 9.85138 22.3901 10.2086 22.5562 10.6253C22.7223 11.042 22.8053 11.4995 22.8053 11.9977ZM21.5081 11.9977C21.5081 11.6248 21.458 11.2911 21.3577 10.9966C21.2606 10.6989 21.118 10.4483 20.93 10.2446C20.7451 10.0378 20.5195 9.87958 20.2532 9.76991C19.99 9.66024 19.6923 9.60541 19.3602 9.60541H18.0395V14.39H19.3602C19.6923 14.39 19.99 14.3352 20.2532 14.2255C20.5195 14.1158 20.7451 13.9592 20.93 13.7555C21.118 13.5487 21.2606 13.298 21.3577 13.0035C21.458 12.7058 21.5081 12.3706 21.5081 11.9977Z" fill="#7F8FA4"/>
</g>
<defs>
<clipPath id="clip0_2662_1064">
<rect width="22" height="8" fill="white" transform="translate(1 8)"/>
</clipPath>
</defs>
</svg>
